<svg xmlns="http://www.w3.org/2000/svg" width="23.703" height="21.065" viewBox="0 0 23.703 21.065">
  <path id="edit" d="M16.567,3.427l3.712,3.712a.4.4,0,0,1,0,.568l-8.987,8.987-3.819.424a.8.8,0,0,1-.885-.885l.424-3.819L16,3.427A.4.4,0,0,1,16.567,3.427Zm6.666-.942L21.226.476a1.609,1.609,0,0,0-2.272,0L17.5,1.933a.4.4,0,0,0,0,.568l3.712,3.712a.4.4,0,0,0,.568,0l1.457-1.457a1.609,1.609,0,0,0,0-2.272ZM15.8,14.249v4.189H2.634V5.27H12.09a.506.506,0,0,0,.35-.144L14.086,3.48a.494.494,0,0,0-.35-.844H1.975A1.976,1.976,0,0,0,0,4.612V19.1a1.976,1.976,0,0,0,1.975,1.975H16.46A1.976,1.976,0,0,0,18.436,19.1V12.6a.5.5,0,0,0-.844-.35L15.946,13.9A.506.506,0,0,0,15.8,14.249Z" transform="translate(0 -0.007)" fill="#ced82f"/>
</svg>
