<svg xmlns="http://www.w3.org/2000/svg" width="25.118" height="17.175" viewBox="0 0 25.118 17.175">
  <path id="go-back" d="M16.612,11.56a1.1,1.1,0,0,1,.008,1.541l-5.093,5.1H30.912a1.089,1.089,0,0,1,0,2.178H11.536l5.093,5.1a1.1,1.1,0,0,1-.008,1.541,1.085,1.085,0,0,1-1.533-.008l-6.9-6.953h0a1.223,1.223,0,0,1-.226-.343,1.039,1.039,0,0,1-.084-.419,1.092,1.092,0,0,1,.31-.762l6.9-6.953A1.067,1.067,0,0,1,16.612,11.56Z" transform="translate(-7.375 -10.752)" fill="#5fc1b8" stroke="#5fc1b8" stroke-width="1"/>
</svg>
