<svg xmlns="http://www.w3.org/2000/svg" width="19.5" height="26" viewBox="0 0 19.5 26">
  <path id="member" d="M4.932,18.414c-.441-.441-.211-.317-1.276-.6a3.664,3.664,0,0,1-1.291-.676l-2.3,5.649A.813.813,0,0,0,.844,23.9l2.676-.1,1.84,1.944A.812.812,0,0,0,6.7,25.494l2.643-6.481a3.644,3.644,0,0,1-4.414-.6Zm14.507,4.371-2.3-5.649a3.655,3.655,0,0,1-1.291.676c-1.07.286-.835.161-1.276.6a3.645,3.645,0,0,1-4.414.6L12.8,25.494a.812.812,0,0,0,1.342.252L15.98,23.8l2.676.1a.813.813,0,0,0,.784-1.119Zm-6.084-5.52c.776-.79.865-.722,1.97-1.023a2.064,2.064,0,0,0,1.446-1.472,3.263,3.263,0,0,1,1.318-2.323,2.107,2.107,0,0,0,.529-2.01,3.3,3.3,0,0,1,0-2.683,2.107,2.107,0,0,0-.529-2.01,3.264,3.264,0,0,1-1.318-2.323A2.064,2.064,0,0,0,15.325,1.95,3.183,3.183,0,0,1,13.042.609,2.021,2.021,0,0,0,11.068.07a3.142,3.142,0,0,1-2.636,0A2.019,2.019,0,0,0,6.457.609,3.181,3.181,0,0,1,4.175,1.95,2.064,2.064,0,0,0,2.729,3.422,3.263,3.263,0,0,1,1.412,5.745a2.105,2.105,0,0,0-.529,2.01,3.3,3.3,0,0,1,0,2.682,2.108,2.108,0,0,0,.529,2.01,3.263,3.263,0,0,1,1.318,2.323,2.064,2.064,0,0,0,1.446,1.472c1.136.31,1.221.261,1.969,1.023a2.018,2.018,0,0,0,2.526.3,2.015,2.015,0,0,1,2.16,0A2.017,2.017,0,0,0,13.355,17.265Zm-8.4-8.33A4.791,4.791,0,1,1,9.75,13.811,4.834,4.834,0,0,1,4.959,8.935Z" transform="translate(0 0.001)" fill="#fff"/>
</svg>
