<svg xmlns="http://www.w3.org/2000/svg" width="25.167" height="22.37" viewBox="0 0 25.167 22.37">
  <path id="participants" d="M19.349,21.978V20.825a6.245,6.245,0,0,0,2.8-5.2c0-3.475,0-6.292-4.194-6.292s-4.194,2.817-4.194,6.292a6.245,6.245,0,0,0,2.8,5.2v1.153c-4.743.388-8.389,2.718-8.389,5.536H27.738c0-2.817-3.646-5.148-8.389-5.536Zm-9.63.54a13.283,13.283,0,0,1,4.365-1.757,7.887,7.887,0,0,1-.885-1.289,8.006,8.006,0,0,1-1.016-3.843,12.414,12.414,0,0,1,.668-5.107,4.552,4.552,0,0,1,3.478-2.61c-.37-1.671-1.353-2.769-3.972-2.769-4.194,0-4.194,2.817-4.194,6.292a6.245,6.245,0,0,0,2.8,5.2v1.153c-4.743.388-8.389,2.718-8.389,5.536h6.1a8.956,8.956,0,0,1,1.053-.8Z" transform="translate(-2.571 -5.143)" fill="#5fc1b8"/>
</svg>
