<svg xmlns="http://www.w3.org/2000/svg" width="17.995" height="23.994" viewBox="0 0 17.995 23.994">
  <path id="reports" d="M8.524,12a4.521,4.521,0,0,1-.094-2.2C8.824,9.8,8.787,11.533,8.524,12Zm-.08,2.212a21.624,21.624,0,0,1-1.331,2.938,17.256,17.256,0,0,1,2.948-1.026A6.071,6.071,0,0,1,8.445,14.214Zm-4.41,5.848c0,.037.619-.253,1.636-1.884A6.477,6.477,0,0,0,4.035,20.062ZM11.622,7.5H18V22.869a1.122,1.122,0,0,1-1.125,1.125H1.125A1.122,1.122,0,0,1,0,22.869V1.125A1.122,1.122,0,0,1,1.125,0H10.5V6.373A1.128,1.128,0,0,0,11.622,7.5Zm-.375,8.051a4.7,4.7,0,0,1-2-2.521,6.736,6.736,0,0,0,.291-3.009A1.174,1.174,0,0,0,7.3,9.7a7.792,7.792,0,0,0,.38,3.608A44.006,44.006,0,0,1,5.764,17.33s0,0-.009,0c-1.27.651-3.449,2.085-2.554,3.187a1.456,1.456,0,0,0,1.008.469c.839,0,1.673-.844,2.863-2.9a26.712,26.712,0,0,1,3.7-1.087,7.1,7.1,0,0,0,3,.914,1.213,1.213,0,0,0,.923-2.034c-.651-.637-2.545-.455-3.449-.337Zm6.42-10.629L13.075.328a1.124,1.124,0,0,0-.8-.328H12V6h6V5.713A1.121,1.121,0,0,0,17.667,4.921ZM14.195,16.885c.192-.127-.117-.558-2.006-.422C13.928,17.2,14.195,16.885,14.195,16.885Z" fill="#5fc1b8"/>
</svg>
