<svg xmlns="http://www.w3.org/2000/svg" width="12.493" height="23.994" viewBox="0 0 12.493 23.994">
  <path id="revenue" d="M22.45,18.07A5.094,5.094,0,0,1,21.118,21.6a5.75,5.75,0,0,1-3.461,1.828v2.343a.413.413,0,0,1-.428.428H15.421a.434.434,0,0,1-.428-.428V23.426a8.44,8.44,0,0,1-1.707-.415,8.222,8.222,0,0,1-2.35-1.239,7.632,7.632,0,0,1-.623-.5q-.167-.161-.234-.241a.407.407,0,0,1-.027-.549l1.379-1.808a.417.417,0,0,1,.308-.161.332.332,0,0,1,.321.121l.027.027a6.992,6.992,0,0,0,3.254,1.674,4.677,4.677,0,0,0,.991.107,3.246,3.246,0,0,0,1.908-.576,1.876,1.876,0,0,0,.823-1.633,1.357,1.357,0,0,0-.2-.71,2.509,2.509,0,0,0-.449-.562,3.675,3.675,0,0,0-.783-.5q-.536-.274-.884-.428t-1.071-.435q-.522-.214-.823-.335t-.823-.355q-.522-.234-.837-.415t-.757-.475a4.715,4.715,0,0,1-.716-.569,8.345,8.345,0,0,1-.582-.656,3.276,3.276,0,0,1-.475-.777,5.37,5.37,0,0,1-.281-.89,4.647,4.647,0,0,1-.114-1.044,4.578,4.578,0,0,1,1.312-3.24,6.127,6.127,0,0,1,3.414-1.794V2.632a.434.434,0,0,1,.428-.428h1.808a.413.413,0,0,1,.428.428V4.988a7.448,7.448,0,0,1,1.48.308,8.578,8.578,0,0,1,1.165.449,6.451,6.451,0,0,1,.85.5q.4.281.522.388t.2.187a.387.387,0,0,1,.067.509L20.857,9.286a.365.365,0,0,1-.308.214.427.427,0,0,1-.362-.094q-.04-.04-.194-.161t-.522-.355a6.909,6.909,0,0,0-.783-.428,5.98,5.98,0,0,0-1-.348,4.467,4.467,0,0,0-1.145-.154,3.48,3.48,0,0,0-2.075.576,1.8,1.8,0,0,0-.69,2.129,1.507,1.507,0,0,0,.395.556,5.9,5.9,0,0,0,.529.442,4.716,4.716,0,0,0,.75.415q.5.234.81.362t.937.368q.71.268,1.085.422T19.3,13.7a8.089,8.089,0,0,1,1.011.569,8.548,8.548,0,0,1,.83.669,3.467,3.467,0,0,1,.71.85,4.852,4.852,0,0,1,.422,1.024,4.417,4.417,0,0,1,.174,1.259Z" transform="translate(-9.957 -2.203)" fill="#5fc1b8"/>
</svg>
