<svg xmlns="http://www.w3.org/2000/svg" width="16.617" height="22.156" viewBox="0 0 16.617 22.156">
  <path id="surveys" d="M9.693,5.885V0H1.039A1.036,1.036,0,0,0,0,1.039V21.118a1.036,1.036,0,0,0,1.039,1.039h14.54a1.036,1.036,0,0,0,1.039-1.039V6.924H10.732A1.042,1.042,0,0,1,9.693,5.885ZM12.463,16.1a.521.521,0,0,1-.519.519H4.674a.521.521,0,0,1-.519-.519v-.346a.521.521,0,0,1,.519-.519h7.27a.521.521,0,0,1,.519.519Zm0-2.77a.521.521,0,0,1-.519.519H4.674a.521.521,0,0,1-.519-.519v-.346a.521.521,0,0,1,.519-.519h7.27a.521.521,0,0,1,.519.519Zm0-3.116v.346a.521.521,0,0,1-.519.519H4.674a.521.521,0,0,1-.519-.519v-.346a.521.521,0,0,1,.519-.519h7.27A.521.521,0,0,1,12.463,10.213Zm4.154-4.938v.264H11.078V0h.264a1.038,1.038,0,0,1,.736.3l4.237,4.241A1.035,1.035,0,0,1,16.617,5.275Z" fill="#5fc1b8"/>
</svg>
