<svg xmlns="http://www.w3.org/2000/svg" width="17.425" height="19.914" viewBox="0 0 17.425 19.914">
  <path id="trash" d="M1.245,18.047a1.867,1.867,0,0,0,1.867,1.867h11.2a1.867,1.867,0,0,0,1.867-1.867V4.978H1.245ZM11.824,8.09a.622.622,0,1,1,1.245,0V16.8a.622.622,0,0,1-1.245,0Zm-3.734,0a.622.622,0,0,1,1.245,0V16.8a.622.622,0,0,1-1.245,0Zm-3.734,0a.622.622,0,0,1,1.245,0V16.8a.622.622,0,0,1-1.245,0ZM16.8,1.245H12.135L11.769.517A.933.933,0,0,0,10.933,0H6.488a.923.923,0,0,0-.832.517l-.366.727H.622A.622.622,0,0,0,0,1.867V3.112a.622.622,0,0,0,.622.622H16.8a.622.622,0,0,0,.622-.622V1.867A.622.622,0,0,0,16.8,1.245Z" fill="#ff3434"/>
</svg>
