<svg xmlns="http://www.w3.org/2000/svg" width="23.479" height="15.653" viewBox="0 0 23.479 15.653">
  <path id="view" d="M23.337,11.731A13.074,13.074,0,0,0,11.74,4.5a13.076,13.076,0,0,0-11.6,7.232,1.319,1.319,0,0,0,0,1.19,13.074,13.074,0,0,0,11.6,7.231,13.076,13.076,0,0,0,11.6-7.232A1.319,1.319,0,0,0,23.337,11.731ZM11.74,18.2a5.87,5.87,0,1,1,5.87-5.87A5.87,5.87,0,0,1,11.74,18.2Zm0-9.783a3.885,3.885,0,0,0-1.032.154,1.95,1.95,0,0,1-2.727,2.727A3.9,3.9,0,1,0,11.74,8.413Z" transform="translate(0 -4.5)" fill="#5fc1b8"/>
</svg>
